<?xml version="1.0" encoding="utf-8"?>
<!-- Generator: Adobe Illustrator 18.0.0, SVG Export Plug-In . SVG Version: 6.00 Build 0)  -->
<!DOCTYPE svg PUBLIC "-//W3C//DTD SVG 1.1//EN" "http://www.w3.org/Graphics/SVG/1.1/DTD/svg11.dtd">
<svg version="1.1" id="Layer_1" xmlns="http://www.w3.org/2000/svg" xmlns:xlink="http://www.w3.org/1999/xlink" x="0px" y="0px"
	 viewBox="0 157 311.8 309.6" enable-background="new 0 157 311.8 309.6" xml:space="preserve">
<g id="phone46.psd_1_">
	<g id="Forma_1_2_">
		<g>
			<path fill="#E9E5E4" d="M290,193c-19.3-21.5-35.2-53.3-75.8-13.4c-17.1,16.8-23.4,30.6-24.9,40.2c-1.6,11.8,9.4,26.5,15,34.3
				c5.6,7.8,5.6,22.8-0.9,32.7c-5.6,8.7-11.8,16.8-18.1,24.3c-7.8,9-14.7,15.6-14.7,15.6s-5.9,7.5-14.7,15.9
				c-6.9,6.9-14.3,13.4-22.8,19.6c-9.7,7.2-24.3,8.1-32.4,3.1c-8.1-5-23.7-15-35.2-12.5c-9.7,2.2-22.8,9.4-38.4,27.8
				c-36.8,43.3-3.7,57.1,19,74.5s98.5-25.9,167.8-96.7S309,214.5,290,193z"/>
		</g>
	</g>
</g>
</svg>
