<?xml version="1.0" encoding="utf-8"?>
<!-- Generator: Adobe Illustrator 18.0.0, SVG Export Plug-In . SVG Version: 6.00 Build 0)  -->
<!DOCTYPE svg PUBLIC "-//W3C//DTD SVG 1.1//EN" "http://www.w3.org/Graphics/SVG/1.1/DTD/svg11.dtd">
<svg version="1.1" id="Layer_1" xmlns="http://www.w3.org/2000/svg" xmlns:xlink="http://www.w3.org/1999/xlink" x="0px" y="0px"
	 viewBox="0 188 311.8 247.6" enable-background="new 0 188 311.8 247.6" xml:space="preserve">
<g id="paper120.psd_1_">
	<g id="Forma_1_2_">
		<g>
			<path fill="#E9E5E4" d="M310.6,197.4c-0.3-0.3,0-0.9-0.3-1.2c0,0-0.3,0-0.3-0.3c0-0.3,0-0.3-0.3-0.6c-1.2-1.2-2.5-1.9-4.1-2.2
				c-0.3,0-0.3,0-0.3,0c-1.2-0.3-2.8,0-4.1,0.6L5,324.3c-3.1,1.2-5,4.4-4.7,7.8s2.5,5.9,5.9,6.9l67,16.2l32.4,69.8
				c0.3,0.3,0.6,0.6,0.9,0.9c0,0.3,0,0.6,0.3,0.6c0.3,0.3,0.6,0.6,1.2,0.9c0.3,0.3,0.6,0.6,0.9,0.6c1.2,0.6,2.5,0.9,3.7,0.9
				c0.3,0,0.6,0,0.9,0c1.6-0.3,2.8-0.9,3.7-1.9c0,0,0.3,0,0.6-0.3l51.4-45.5l50.8,16.8c3.7,1.2,7.8-0.6,9.4-4.4L311.5,203
				c0.3-0.3,0-0.9,0-1.6c0.3-0.6,0.3-1.2,0.3-1.9C311.5,199.9,311.2,198.6,310.6,197.4z M31.8,329.6L221.4,246L77,340.8L31.8,329.6z
				 M121,354.8c-0.9,0.9-1.9,2.2-2.2,3.7l-8.7,39.6l-21.5-46.5L222,264.1l-101,90.4V354.8z M125.3,401l6.5-30.6l20.3,6.5L125.3,401z
				 M218.3,382.6l-76.7-25.3l141.9-126.9L218.3,382.6z"/>
		</g>
	</g>
</g>
</svg>
