<?xml version="1.0" encoding="utf-8"?>
<!-- Generator: Adobe Illustrator 18.0.0, SVG Export Plug-In . SVG Version: 6.00 Build 0)  -->
<!DOCTYPE svg PUBLIC "-//W3C//DTD SVG 1.1//EN" "http://www.w3.org/Graphics/SVG/1.1/DTD/svg11.dtd">
<svg version="1.1" id="Layer_1" xmlns="http://www.w3.org/2000/svg" xmlns:xlink="http://www.w3.org/1999/xlink" x="0px" y="0px"
	 viewBox="0 0 200 200" enable-background="new 0 0 200 200" xml:space="preserve">
<g>
	<g>
		<path fill="#FFFFFF" stroke="#FFFFFF" stroke-width="6.9178" stroke-miterlimit="10" d="M137.6,97.6c-8.9-4.4-19.2-6.3-29-7.6
			c-28.8-4-58-1.2-86.5,4.4c-8.2,1.6-4.8,14.1,3.5,12.5c26.2-5.2,54.1-7.9,80.3-4.2c6.7,1,13.3,2.3,19.8,4.3
			c1.6,0.5,3.3,1.1,4.8,1.7c1.4,0.5-1.6-0.8,0.3,0.2C138.6,112.6,145.2,101.3,137.6,97.6L137.6,97.6z"/>
	</g>
</g>
<g>
	<g>
		<path fill="#FFFFFF" stroke="#FFFFFF" stroke-width="6.9178" stroke-miterlimit="10" d="M66.1,136.3
			c-13.4-13.4-26.8-26.8-40.2-40.2c0,3,0,6.1,0,9.2C39.3,91.9,52.7,78.5,66.1,65c5.9-5.9-3.3-15.1-9.2-9.2
			C43.6,69.2,30.2,82.6,16.8,96c-2.5,2.5-2.5,6.7,0,9.2C30.2,118.6,43.6,132,57,145.4C62.9,151.4,72.1,142.2,66.1,136.3L66.1,136.3z
			"/>
	</g>
</g>
<g>
	<g>
		<path fill="#FFFFFF" stroke="#FFFFFF" stroke-width="6.9178" stroke-miterlimit="10" d="M172.4,51.9c0,32.5,0,64.9,0,97.5
			c0,8.4,13,8.4,13,0c0-32.5,0-64.9,0-97.5C185.3,43.6,172.4,43.6,172.4,51.9L172.4,51.9z"/>
	</g>
</g>
</svg>
